<?xml version="1.0" encoding="UTF-8" standalone="no"?>
<!DOCTYPE svg PUBLIC "-//W3C//DTD SVG 1.1//EN" "http://www.w3.org/Graphics/SVG/1.1/DTD/svg11.dtd">
<svg xmlns="http://www.w3.org/2000/svg" version="1.1" viewBox="0.00 0.00 222.00 45.00">
<g stroke-width="2.00" fill="none" stroke-linecap="butt">
<path stroke="#007149" vector-effect="non-scaling-stroke" d="
  M 29.48 26.41
  L 23.89 30.37
  A 0.32 0.32 0.0 0 0 24.18 30.93
  L 30.33 28.76"
/>
<path stroke="#007149" vector-effect="non-scaling-stroke" d="
  M 73.62 26.48
  Q 70.97 28.70 68.17 30.35
  A 0.32 0.32 0.0 0 0 68.44 30.93
  L 74.49 28.63"
/>
<path stroke="#007149" vector-effect="non-scaling-stroke" d="
  M 117.80 26.44
  Q 115.28 28.59 112.35 30.27
  A 0.32 0.32 0.0 0 0 112.61 30.85
  L 118.82 28.77"
/>
<path stroke="#007149" vector-effect="non-scaling-stroke" d="
  M 161.81 26.57
  L 156.48 30.39
  A 0.30 0.30 0.0 0 0 156.75 30.92
  L 161.36 29.41
  A 0.27 0.26 -12.9 0 0 161.55 29.12
  Q 161.53 28.86 161.56 28.79
  A 0.38 0.38 0.0 0 1 162.13 28.61
  Q 162.50 28.87 162.97 28.78"
/>
<path stroke="#007149" vector-effect="non-scaling-stroke" d="
  M 206.47 26.36
  L 200.85 30.37
  A 0.34 0.34 0.0 0 0 201.16 30.97
  L 207.34 28.81"
/>
</g>
<path fill="#00b67a" d="
  M 29.48 26.41
  L 23.89 30.37
  A 0.32 0.32 0.0 0 0 24.18 30.93
  L 30.33 28.76
  L 33.90 39.69
  A 0.20 0.19 -81.0 0 1 33.60 39.91
  L 22.88 32.05
  A 1.26 1.25 -44.7 0 0 21.39 32.05
  L 10.70 39.87
  A 0.25 0.25 0.0 0 1 10.32 39.59
  L 14.64 26.68
  A 0.66 0.66 0.0 0 0 14.40 25.93
  L 3.32 17.81
  A 0.19 0.19 0.0 0 1 3.43 17.47
  L 17.14 17.47
  A 0.56 0.55 -80.3 0 0 17.66 17.09
  L 21.89 4.44
  A 0.31 0.30 -44.7 0 1 22.47 4.44
  L 26.52 16.82
  A 0.98 0.97 -9.0 0 0 27.45 17.49
  L 40.47 17.49
  A 0.39 0.39 0.0 0 1 40.70 18.20
  L 29.48 26.41
  Z"
/>
<path fill="#00b67a" d="
  M 73.62 26.48
  Q 70.97 28.70 68.17 30.35
  A 0.32 0.32 0.0 0 0 68.44 30.93
  L 74.49 28.63
  L 77.85 39.29
  A 0.29 0.29 0.0 0 1 77.40 39.62
  L 66.91 31.93
  A 0.94 0.93 44.7 0 0 65.80 31.93
  L 54.81 39.96
  A 0.18 0.18 0.0 0 1 54.53 39.76
  L 58.77 27.07
  A 1.21 1.20 -62.4 0 0 58.35 25.72
  L 47.34 17.65
  A 0.09 0.09 0.0 0 1 47.39 17.48
  L 61.28 17.48
  A 0.62 0.62 0.0 0 0 61.87 17.05
  L 66.16 4.24
  A 0.41 0.41 0.0 0 1 66.42 3.99
  Q 67.13 3.76 66.98 4.99
  Q 66.94 5.28 67.17 5.96
  Q 68.84 10.88 70.60 16.55
  A 1.34 1.34 0.0 0 0 71.88 17.50
  L 84.53 17.50
  A 0.30 0.29 26.3 0 1 84.71 18.03
  L 73.62 26.48
  Z"
/>
<path fill="#00b67a" d="
  M 117.80 26.44
  Q 115.28 28.59 112.35 30.27
  A 0.32 0.32 0.0 0 0 112.61 30.85
  L 118.82 28.77
  L 122.37 39.63
  A 0.23 0.23 0.0 0 1 122.02 39.89
  L 111.06 31.86
  A 0.81 0.81 0.0 0 0 110.10 31.86
  L 99.13 39.88
  A 0.23 0.23 0.0 0 1 98.78 39.62
  L 102.97 27.10
  A 1.25 1.25 0.0 0 0 102.52 25.69
  L 91.64 17.71
  A 0.13 0.13 0.0 0 1 91.72 17.48
  L 105.05 17.48
  A 1.30 1.30 0.0 0 0 106.28 16.60
  L 109.96 5.62
  A 1.78 1.62 56.4 0 0 110.04 5.10
  L 110.04 4.26
  A 0.39 0.39 0.0 0 1 110.80 4.14
  L 115.01 17.02
  A 0.69 0.67 80.3 0 0 115.65 17.48
  L 129.15 17.48
  A 0.18 0.17 26.0 0 1 129.26 17.79
  L 117.80 26.44
  Z"
/>
<path fill="#00b67a" d="
  M 161.81 26.57
  L 156.48 30.39
  A 0.30 0.30 0.0 0 0 156.75 30.92
  L 161.36 29.41
  A 0.27 0.26 -12.9 0 0 161.55 29.12
  Q 161.53 28.86 161.56 28.79
  A 0.38 0.38 0.0 0 1 162.13 28.61
  Q 162.50 28.87 162.97 28.78
  Q 164.66 33.46 166.05 38.24
  Q 166.24 38.91 166.74 39.40
  A 0.34 0.34 0.0 0 1 166.30 39.91
  L 155.58 32.05
  A 1.30 1.29 44.7 0 0 154.05 32.05
  L 143.29 39.92
  A 0.21 0.21 0.0 0 1 142.97 39.68
  L 147.24 26.91
  A 0.97 0.97 0.0 0 0 146.89 25.81
  L 135.93 17.77
  A 0.16 0.16 0.0 0 1 136.03 17.48
  L 149.64 17.48
  A 0.75 0.75 0.0 0 0 150.35 16.97
  L 154.55 4.43
  A 0.30 0.30 0.0 0 1 155.12 4.44
  L 159.23 17.00
  A 0.68 0.68 0.0 0 0 159.88 17.47
  L 173.38 17.47
  A 0.16 0.16 0.0 0 1 173.47 17.76
  L 161.81 26.57
  Z"
/>
<path fill="#00b67a" d="
  M 206.47 26.36
  L 200.85 30.37
  A 0.34 0.34 0.0 0 0 201.16 30.97
  L 207.34 28.81
  L 210.91 39.75
  A 0.17 0.17 0.0 0 1 210.65 39.94
  L 199.89 32.05
  A 1.23 1.22 -44.5 0 0 198.46 32.04
  L 187.55 39.93
  A 0.30 0.29 81.8 0 1 187.10 39.59
  Q 187.17 39.39 187.48 39.04
  A 0.41 0.32 83.0 0 0 187.57 38.89
  L 191.66 26.68
  A 0.65 0.65 0.0 0 0 191.43 25.95
  L 180.35 17.84
  A 0.21 0.21 0.0 0 1 180.48 17.46
  L 194.09 17.46
  A 0.62 0.62 0.0 0 0 194.68 17.03
  L 198.83 4.65
  A 0.37 0.37 0.0 0 1 199.54 4.65
  L 203.52 16.80
  A 1.00 0.99 81.2 0 0 204.47 17.50
  L 217.88 17.50
  A 0.15 0.14 26.6 0 1 217.97 17.76
  L 206.47 26.36
  Z"
/>
<path fill="#002c18" d="
  M 29.48 26.41
  L 30.33 28.76
  L 24.18 30.93
  A 0.32 0.32 0.0 0 1 23.89 30.37
  L 29.48 26.41
  Z"
/>
<path fill="#002c18" d="
  M 117.80 26.44
  L 118.82 28.77
  L 112.61 30.85
  A 0.32 0.32 0.0 0 1 112.35 30.27
  Q 115.28 28.59 117.80 26.44
  Z"
/>
<path fill="#002c18" d="
  M 206.47 26.36
  L 207.34 28.81
  L 201.16 30.97
  A 0.34 0.34 0.0 0 1 200.85 30.37
  L 206.47 26.36
  Z"
/>
<path fill="#002c18" d="
  M 73.62 26.48
  L 74.49 28.63
  L 68.44 30.93
  A 0.32 0.32 0.0 0 1 68.17 30.35
  Q 70.97 28.70 73.62 26.48
  Z"
/>
<path fill="#002c18" d="
  M 161.81 26.57
  Q 163.14 27.57 162.97 28.78
  Q 162.50 28.87 162.13 28.61
  A 0.38 0.38 0.0 0 0 161.56 28.79
  Q 161.53 28.86 161.55 29.12
  A 0.27 0.26 -12.9 0 1 161.36 29.41
  L 156.75 30.92
  A 0.30 0.30 0.0 0 1 156.48 30.39
  L 161.81 26.57
  Z"
/>
</svg>
